<svg id="svg" version="1.1" xmlns="http://www.w3.org/2000/svg" xmlns:xlink="http://www.w3.org/1999/xlink" width="400" height="400" viewBox="0, 0, 400,400"><g id="svgg"><path id="path0" d="M156.802 152.056 C 156.106 152.395,155.418 152.859,155.273 153.086 C 155.128 153.314,155.008 153.381,155.005 153.235 C 154.998 152.856,153.333 154.571,153.333 154.957 C 153.333 155.133,153.185 155.328,153.004 155.389 C 151.452 155.912,150.789 163.520,152.094 165.824 C 155.357 171.584,164.824 170.043,167.379 163.335 C 170.415 155.366,164.020 148.546,156.802 152.056 M70.333 185.167 L 70.333 191.000 64.500 191.000 L 58.667 191.000 58.667 195.000 L 58.667 199.000 64.500 199.000 L 70.333 199.000 70.333 204.833 L 70.333 210.667 74.500 210.667 L 78.667 210.667 78.667 204.833 L 78.667 199.000 84.500 199.000 L 90.333 199.000 90.333 195.000 L 90.333 191.000 84.500 191.000 L 78.667 191.000 78.667 185.167 L 78.667 179.333 74.500 179.333 L 70.333 179.333 70.333 185.167 M152.915 182.837 C 151.676 183.270,150.228 183.934,149.696 184.312 C 149.165 184.690,148.548 185.000,148.326 185.000 C 147.777 185.000,135.792 192.985,134.193 194.417 C 133.834 194.737,133.442 195.000,133.321 195.000 C 133.201 195.000,132.760 195.297,132.342 195.659 C 131.924 196.021,130.843 196.792,129.940 197.372 C 128.739 198.142,128.356 198.570,128.516 198.963 C 128.636 199.258,128.891 199.950,129.082 200.500 C 129.711 202.309,130.504 202.562,131.667 201.322 C 132.482 200.453,140.031 196.420,141.900 195.854 C 143.700 195.310,144.259 196.916,143.516 200.500 C 143.250 201.783,142.942 203.358,142.831 204.000 C 142.642 205.093,141.674 208.792,140.477 213.000 C 140.190 214.008,139.913 215.058,139.861 215.333 C 139.810 215.608,139.679 216.058,139.572 216.333 C 139.464 216.608,138.396 220.433,137.198 224.833 C 132.402 242.448,132.974 248.679,139.385 248.662 C 141.904 248.655,147.112 246.603,149.628 244.625 C 150.066 244.281,150.558 244.000,150.723 244.000 C 151.117 244.000,158.134 239.305,158.278 238.945 C 158.339 238.792,158.601 238.667,158.861 238.667 C 159.121 238.667,159.333 238.517,159.333 238.333 C 159.333 238.150,159.558 238.000,159.833 238.000 C 160.108 238.000,160.333 237.850,160.333 237.667 C 160.333 237.483,160.558 237.333,160.833 237.333 C 161.108 237.333,161.333 237.183,161.333 237.000 C 161.333 236.817,161.558 236.667,161.833 236.667 C 162.108 236.667,162.333 236.552,162.333 236.412 C 162.333 236.272,162.939 235.784,163.680 235.329 C 165.184 234.404,165.227 233.826,163.947 231.750 C 163.140 230.440,163.261 230.447,161.554 231.623 C 155.617 235.717,151.440 237.499,150.609 236.292 C 149.840 235.175,150.997 228.205,153.161 220.917 C 153.419 220.046,153.545 219.333,153.441 219.333 C 153.337 219.333,153.407 219.146,153.598 218.917 C 153.788 218.688,153.961 218.350,153.983 218.167 C 154.050 217.608,154.678 215.396,156.219 210.287 C 157.028 207.603,157.761 205.128,157.846 204.787 C 157.932 204.446,158.312 203.042,158.692 201.667 C 159.588 198.418,159.526 198.653,159.800 197.500 C 159.931 196.950,160.185 195.900,160.365 195.167 C 160.544 194.433,160.760 193.383,160.843 192.833 C 160.926 192.283,161.139 191.158,161.316 190.333 C 162.783 183.492,159.478 180.543,152.915 182.837 M70.667 281.833 L 70.667 329.333 200.000 329.333 L 329.333 329.333 329.333 281.833 L 329.333 234.333 326.500 234.333 L 323.667 234.333 323.667 279.000 L 323.667 323.667 200.000 323.667 L 76.333 323.667 76.333 279.000 L 76.333 234.333 73.500 234.333 L 70.667 234.333 70.667 281.833 " stroke="none" fill="#64b43b" fill-rule="evenodd"></path><path id="path1" d="M143.744 198.000 C 143.744 198.642,143.813 198.904,143.896 198.583 C 143.980 198.262,143.980 197.737,143.896 197.417 C 143.813 197.096,143.744 197.358,143.744 198.000 M61.400 199.248 C 62.995 199.309,65.695 199.309,67.400 199.249 C 69.105 199.188,67.800 199.138,64.500 199.138 C 61.200 199.137,59.805 199.187,61.400 199.248 M81.400 199.248 C 82.995 199.309,85.695 199.309,87.400 199.249 C 89.105 199.188,87.800 199.138,84.500 199.138 C 81.200 199.137,79.805 199.187,81.400 199.248 " stroke="none" fill="#6cb43c" fill-rule="evenodd"></path><path id="path2" d="M70.667 114.167 L 70.667 157.667 73.500 157.667 L 76.333 157.667 76.333 116.833 L 76.333 76.000 200.000 76.000 L 323.667 76.000 323.667 116.833 L 323.667 157.667 326.500 157.667 L 329.333 157.667 329.333 114.167 L 329.333 70.667 200.000 70.667 L 70.667 70.667 70.667 114.167 M216.705 146.976 C 216.477 147.117,215.925 147.163,215.478 147.077 C 214.991 146.984,214.667 147.079,214.667 147.314 C 214.667 147.530,214.518 147.614,214.337 147.502 C 213.914 147.241,210.000 148.002,210.000 148.345 C 210.000 148.488,209.700 148.526,209.333 148.430 C 208.967 148.334,208.667 148.418,208.667 148.617 C 208.667 148.816,208.442 148.893,208.167 148.787 C 207.892 148.682,207.667 148.770,207.667 148.984 C 207.667 149.198,207.528 149.287,207.358 149.182 C 206.911 148.906,203.927 150.146,204.238 150.478 C 204.382 150.632,204.275 150.684,204.000 150.593 C 203.367 150.384,198.612 152.739,197.636 153.745 C 197.232 154.160,197.022 154.289,197.169 154.032 C 197.513 153.429,194.561 155.449,192.853 156.985 C 189.145 160.320,185.870 164.169,186.219 164.781 C 186.341 164.993,186.311 165.049,186.154 164.906 C 185.620 164.420,180.753 172.997,181.175 173.681 C 181.284 173.856,181.205 174.000,181.000 174.000 C 180.795 174.000,180.720 174.150,180.833 174.333 C 180.947 174.517,180.913 174.667,180.758 174.667 C 180.384 174.667,179.288 177.656,179.522 178.036 C 179.623 178.200,179.578 178.333,179.422 178.333 C 179.058 178.333,178.261 181.280,178.515 181.690 C 178.620 181.861,178.530 182.000,178.314 182.000 C 178.086 182.000,177.995 182.279,178.097 182.667 C 178.192 183.033,178.117 183.333,177.930 183.333 C 177.742 183.333,177.661 183.708,177.748 184.167 C 177.836 184.625,177.768 185.000,177.598 185.000 C 177.428 185.000,177.390 185.319,177.513 185.708 C 177.641 186.111,177.577 186.516,177.365 186.647 C 177.160 186.774,176.934 188.067,176.862 189.522 C 176.790 190.977,176.625 192.430,176.496 192.752 C 176.261 193.336,176.455 201.830,176.769 204.667 C 177.098 207.647,177.387 209.484,177.576 209.789 C 177.681 209.960,177.812 210.565,177.865 211.133 C 178.177 214.436,181.212 222.296,183.877 226.706 C 185.935 230.110,189.290 234.400,189.697 234.148 C 189.873 234.039,189.975 234.142,189.925 234.377 C 189.875 234.611,190.021 234.810,190.250 234.818 C 190.479 234.827,190.629 234.930,190.583 235.048 C 190.431 235.441,191.750 236.655,192.096 236.441 C 192.292 236.320,192.335 236.395,192.197 236.618 C 192.063 236.834,192.186 237.092,192.474 237.203 C 192.758 237.312,193.544 237.909,194.222 238.529 C 194.899 239.150,195.524 239.587,195.611 239.501 C 195.697 239.414,195.932 239.562,196.134 239.828 C 196.744 240.636,202.105 243.698,202.586 243.513 C 202.833 243.418,202.953 243.474,202.853 243.636 C 202.633 243.991,203.602 244.413,204.030 244.148 C 204.197 244.045,204.333 244.097,204.333 244.263 C 204.333 244.650,206.998 245.707,207.379 245.472 C 207.537 245.374,207.667 245.470,207.667 245.686 C 207.667 245.914,207.946 246.005,208.333 245.903 C 208.700 245.808,209.000 245.881,209.000 246.067 C 209.000 246.253,209.215 246.322,209.478 246.221 C 209.742 246.120,210.004 246.168,210.062 246.328 C 210.895 248.633,234.878 248.128,238.833 245.722 C 239.017 245.610,239.387 245.485,239.657 245.445 C 240.639 245.297,244.333 243.583,244.333 243.276 C 244.333 243.103,244.483 243.053,244.667 243.167 C 244.850 243.280,245.000 243.205,245.000 243.000 C 245.000 242.795,245.150 242.720,245.333 242.833 C 245.517 242.947,245.667 242.855,245.667 242.631 C 245.667 242.406,245.761 242.317,245.877 242.433 C 245.993 242.548,246.368 242.493,246.710 242.310 C 247.091 242.106,247.333 242.099,247.333 242.293 C 247.333 242.785,250.059 244.669,250.435 244.437 C 250.619 244.323,250.682 244.372,250.575 244.545 C 250.375 244.868,253.301 246.900,253.750 246.750 C 253.887 246.704,254.000 246.810,254.000 246.985 C 254.000 247.316,258.189 249.883,259.025 250.064 C 259.286 250.120,259.575 250.260,259.667 250.374 C 259.949 250.725,263.820 252.598,264.513 252.719 C 264.872 252.782,265.255 252.953,265.363 253.100 C 265.471 253.247,265.884 253.391,266.280 253.421 C 266.676 253.451,267.000 253.593,267.000 253.738 C 267.000 253.882,267.270 254.000,267.600 254.000 C 268.185 254.000,269.215 252.021,269.117 251.083 C 269.094 250.854,269.216 250.667,269.390 250.667 C 269.564 250.667,269.621 250.529,269.518 250.362 C 269.414 250.194,269.445 250.007,269.587 249.945 C 269.857 249.829,272.073 244.957,271.920 244.817 C 271.544 244.472,269.201 243.709,268.965 243.855 C 268.801 243.956,268.667 243.872,268.667 243.667 C 268.667 243.462,268.517 243.387,268.333 243.500 C 268.150 243.613,268.000 243.570,268.000 243.404 C 268.000 243.083,265.707 241.945,265.204 242.015 C 265.041 242.038,264.816 241.928,264.704 241.771 C 264.260 241.147,262.626 240.319,262.272 240.538 C 262.043 240.679,261.990 240.620,262.135 240.385 C 262.347 240.041,261.949 239.850,261.250 239.961 C 261.112 239.982,261.000 239.854,261.000 239.675 C 261.000 239.289,259.177 238.292,258.876 238.513 C 258.761 238.598,258.743 238.565,258.836 238.442 C 259.080 238.118,257.270 237.000,256.886 237.237 C 256.709 237.347,256.671 237.263,256.802 237.052 C 257.026 236.688,256.578 236.505,255.833 236.655 C 255.650 236.692,255.611 236.611,255.747 236.475 C 255.883 236.339,255.846 236.049,255.665 235.831 C 255.436 235.555,255.563 235.242,256.085 234.801 L 256.833 234.167 256.198 234.917 C 255.849 235.329,255.639 235.667,255.732 235.667 C 255.824 235.667,256.710 234.735,257.700 233.596 C 258.690 232.457,259.275 231.649,259.000 231.799 C 258.725 231.950,258.950 231.687,259.500 231.215 C 260.050 230.743,260.402 230.352,260.283 230.345 C 260.164 230.339,260.500 229.868,261.032 229.299 C 261.563 228.731,261.914 228.131,261.812 227.966 C 261.711 227.801,261.795 227.667,262.000 227.667 C 262.205 227.667,262.280 227.517,262.167 227.333 C 262.053 227.150,262.117 227.000,262.308 227.000 C 262.740 227.000,264.381 223.825,264.096 223.541 C 263.982 223.427,264.089 223.333,264.333 223.333 C 264.578 223.333,264.685 223.240,264.571 223.127 C 264.458 223.013,264.584 222.701,264.852 222.433 C 265.120 222.165,265.254 221.808,265.150 221.640 C 265.046 221.471,265.105 221.333,265.281 221.333 C 265.644 221.333,266.426 219.336,266.066 219.328 C 265.938 219.325,266.017 219.206,266.242 219.064 C 266.466 218.921,266.691 218.436,266.742 217.985 C 266.792 217.535,266.952 217.079,267.096 216.972 C 267.241 216.865,267.391 216.340,267.430 215.806 C 267.468 215.271,267.593 214.758,267.707 214.667 C 268.033 214.405,269.037 209.663,268.836 209.338 C 268.737 209.177,268.818 208.946,269.016 208.823 C 269.214 208.701,269.335 208.203,269.284 207.717 C 269.233 207.231,269.288 206.676,269.406 206.485 C 269.685 206.033,269.746 204.418,269.750 197.333 C 269.754 189.452,269.720 188.667,269.372 188.667 C 269.208 188.667,269.123 188.145,269.185 187.508 C 269.247 186.871,269.153 186.261,268.976 186.152 C 268.800 186.043,268.744 185.811,268.852 185.637 C 269.041 185.331,267.472 178.508,267.057 177.833 C 266.944 177.650,266.819 177.278,266.778 177.006 C 266.737 176.734,266.544 176.459,266.349 176.394 C 266.155 176.329,266.075 176.149,266.171 175.993 C 266.420 175.590,264.616 171.325,264.284 171.531 C 264.132 171.625,264.079 171.506,264.166 171.267 C 264.356 170.746,261.457 165.667,260.969 165.667 C 260.781 165.667,260.706 165.539,260.802 165.384 C 261.008 165.050,257.502 160.710,256.812 160.446 C 256.551 160.345,256.407 160.151,256.492 160.013 C 256.678 159.712,253.951 157.461,253.559 157.592 C 253.407 157.642,253.371 157.542,253.477 157.370 C 253.955 156.597,242.537 149.629,241.671 150.164 C 241.485 150.279,241.333 150.228,241.333 150.052 C 241.333 149.655,239.366 148.940,238.962 149.190 C 238.799 149.291,238.667 149.231,238.667 149.057 C 238.667 148.663,233.189 147.288,231.243 147.193 C 230.450 147.154,229.659 147.039,229.484 146.938 C 228.992 146.652,217.173 146.687,216.705 146.976 M228.019 158.748 C 228.121 158.885,228.982 159.035,229.933 159.082 C 230.884 159.128,231.663 159.267,231.664 159.390 C 231.666 159.598,233.414 160.133,234.167 160.156 C 234.350 160.162,234.575 160.245,234.667 160.340 C 235.090 160.781,236.754 161.319,237.076 161.119 C 237.307 160.977,237.338 161.056,237.163 161.338 C 236.965 161.659,237.043 161.722,237.445 161.567 C 237.750 161.450,238.000 161.477,238.000 161.627 C 238.000 161.979,241.958 164.333,242.550 164.333 C 242.797 164.333,242.963 164.446,242.917 164.583 C 242.871 164.721,242.956 164.863,243.105 164.899 C 243.255 164.936,243.679 165.350,244.049 165.819 C 244.418 166.289,244.841 166.598,244.989 166.507 C 245.137 166.415,245.462 166.602,245.712 166.920 C 246.132 167.456,246.116 167.463,245.500 167.006 C 244.842 166.518,244.841 166.521,245.461 167.248 C 245.807 167.653,246.242 167.890,246.429 167.774 C 246.617 167.658,246.671 167.723,246.551 167.918 C 246.430 168.113,246.793 168.661,247.358 169.136 C 247.923 169.611,248.285 170.000,248.164 170.000 C 248.043 170.000,248.382 170.563,248.918 171.250 C 249.453 171.938,250.173 172.987,250.517 173.583 C 250.862 174.179,251.261 174.667,251.405 174.667 C 251.549 174.667,251.637 174.779,251.601 174.917 C 251.480 175.372,252.039 176.667,252.356 176.667 C 252.527 176.667,252.630 176.779,252.585 176.917 C 252.448 177.333,253.421 180.000,253.710 180.000 C 253.858 180.000,253.883 180.250,253.766 180.555 C 253.632 180.906,253.685 181.028,253.912 180.888 C 254.141 180.746,254.208 180.908,254.097 181.333 C 254.001 181.700,254.073 182.000,254.257 182.000 C 254.442 182.000,254.573 182.188,254.550 182.417 C 254.465 183.246,255.463 187.333,255.750 187.333 C 255.912 187.333,255.961 187.597,255.859 187.919 C 255.757 188.241,255.820 189.554,255.999 190.836 C 256.474 194.233,256.463 200.317,255.974 204.333 C 255.739 206.258,255.539 208.283,255.528 208.833 C 255.517 209.383,255.398 209.914,255.265 210.013 C 255.131 210.112,254.979 210.712,254.927 211.346 C 254.876 211.981,254.706 212.593,254.551 212.706 C 254.395 212.820,254.245 213.307,254.217 213.790 C 254.190 214.272,254.038 214.666,253.881 214.666 C 253.724 214.667,253.682 214.892,253.787 215.167 C 253.893 215.442,253.818 215.667,253.621 215.667 C 253.423 215.667,253.348 215.892,253.454 216.167 C 253.559 216.442,253.492 216.667,253.303 216.667 C 253.115 216.667,253.045 216.804,253.149 216.972 C 253.253 217.139,253.224 217.327,253.085 217.388 C 252.813 217.509,251.433 220.309,251.407 220.796 C 251.398 220.959,251.260 221.184,251.100 221.296 C 250.545 221.687,247.694 225.917,247.847 226.124 C 247.931 226.239,247.900 226.258,247.777 226.166 C 247.452 225.922,246.316 227.036,246.533 227.386 C 246.634 227.550,246.518 227.642,246.275 227.592 C 246.032 227.541,245.864 227.667,245.901 227.870 C 246.025 228.543,244.857 228.170,243.280 227.034 C 242.426 226.418,241.639 225.934,241.530 225.957 C 241.422 225.981,241.038 225.704,240.676 225.343 C 239.839 224.505,236.147 222.631,235.873 222.904 C 235.760 223.018,235.667 222.952,235.667 222.758 C 235.667 222.430,232.032 220.800,230.736 220.547 C 230.423 220.485,229.717 220.251,229.167 220.026 C 227.904 219.509,226.267 219.289,226.500 219.667 C 226.598 219.825,226.515 220.054,226.316 220.177 C 226.117 220.300,226.035 220.611,226.133 220.867 C 226.232 221.124,226.151 221.333,225.954 221.333 C 225.757 221.333,225.682 221.558,225.787 221.833 C 225.893 222.108,225.818 222.333,225.621 222.333 C 225.423 222.333,225.348 222.558,225.454 222.833 C 225.559 223.108,225.484 223.333,225.287 223.333 C 225.090 223.333,225.015 223.558,225.121 223.833 C 225.226 224.108,225.151 224.333,224.954 224.333 C 224.757 224.333,224.678 224.549,224.779 224.812 C 224.880 225.075,224.807 225.342,224.617 225.405 C 224.427 225.469,224.248 225.928,224.219 226.427 C 224.190 226.925,224.038 227.333,223.881 227.333 C 223.724 227.333,223.682 227.558,223.787 227.833 C 223.893 228.108,223.834 228.333,223.656 228.333 C 223.479 228.333,223.333 228.476,223.333 228.651 C 223.333 229.026,225.644 229.720,226.052 229.468 C 226.207 229.372,226.333 229.429,226.333 229.594 C 226.333 229.827,228.224 230.602,229.333 230.824 C 229.425 230.842,229.838 231.044,230.250 231.274 C 230.662 231.503,231.002 231.572,231.005 231.428 C 231.008 231.284,231.120 231.324,231.255 231.517 C 231.671 232.112,235.244 233.977,235.499 233.732 C 235.631 233.604,235.676 233.800,235.600 234.167 C 235.523 234.533,235.282 234.796,235.064 234.750 C 234.845 234.704,234.667 234.812,234.667 234.990 C 234.667 235.167,234.442 235.226,234.167 235.121 C 233.892 235.015,233.667 235.090,233.667 235.287 C 233.667 235.484,233.442 235.559,233.167 235.454 C 232.892 235.348,232.667 235.414,232.667 235.600 C 232.667 235.786,232.367 235.859,232.000 235.763 C 231.633 235.667,231.333 235.742,231.333 235.930 C 231.333 236.117,231.033 236.192,230.667 236.097 C 230.300 236.001,230.000 236.052,230.000 236.211 C 230.000 236.541,229.172 236.591,223.210 236.620 C 220.504 236.633,217.982 236.445,216.377 236.111 C 214.978 235.820,213.496 235.564,213.083 235.541 C 212.671 235.518,212.333 235.387,212.333 235.250 C 212.333 235.112,212.221 235.032,212.083 235.071 C 211.946 235.110,211.496 234.954,211.083 234.726 C 210.671 234.497,210.333 234.395,210.333 234.500 C 210.333 234.605,209.996 234.503,209.583 234.274 C 209.171 234.046,208.721 233.890,208.583 233.929 C 208.446 233.968,208.333 233.841,208.333 233.647 C 208.333 233.453,208.196 233.379,208.028 233.482 C 207.861 233.586,207.673 233.554,207.612 233.411 C 207.431 232.989,203.421 230.362,203.201 230.521 C 203.091 230.601,203.060 230.581,203.134 230.477 C 203.317 230.218,200.302 227.479,199.949 227.583 C 199.794 227.629,199.704 227.479,199.750 227.250 C 199.796 227.021,199.646 226.871,199.417 226.917 C 199.187 226.963,199.037 226.888,199.082 226.750 C 199.220 226.324,196.772 223.341,196.491 223.594 C 196.346 223.726,196.331 223.651,196.459 223.429 C 196.586 223.206,196.386 222.719,196.012 222.345 C 195.639 221.972,195.322 221.554,195.309 221.417 C 195.296 221.279,194.779 220.101,194.161 218.799 C 193.543 217.496,192.937 216.034,192.816 215.549 C 192.694 215.064,192.477 214.667,192.334 214.667 C 192.191 214.667,192.091 214.479,192.111 214.250 C 192.165 213.646,191.016 208.594,190.684 207.977 C 190.529 207.689,190.480 207.052,190.574 206.560 C 190.668 206.069,190.605 205.667,190.435 205.667 C 190.266 205.667,190.124 204.879,190.121 203.917 C 190.118 202.954,190.061 200.182,189.995 197.757 C 189.930 195.331,189.979 193.243,190.105 193.118 C 190.230 192.992,190.333 192.259,190.333 191.488 C 190.333 189.531,191.208 184.611,192.051 181.833 C 192.440 180.550,192.762 179.277,192.768 179.004 C 192.773 178.731,192.986 178.299,193.241 178.044 C 193.496 177.789,193.623 177.367,193.523 177.106 C 193.423 176.845,193.473 176.714,193.635 176.814 C 193.936 177.000,194.509 175.435,194.360 174.833 C 194.315 174.650,194.391 174.613,194.528 174.751 C 194.793 175.015,196.412 172.463,196.433 171.750 C 196.439 171.521,196.515 171.404,196.600 171.489 C 196.686 171.575,197.168 171.127,197.672 170.493 C 199.020 168.797,202.508 165.085,202.207 165.667 C 202.065 165.942,202.247 165.829,202.611 165.417 C 202.976 165.004,203.430 164.667,203.620 164.667 C 203.811 164.667,204.120 164.404,204.307 164.083 C 204.494 163.762,204.651 163.602,204.657 163.726 C 204.666 163.945,208.114 162.018,208.881 161.365 C 209.091 161.186,209.353 161.131,209.464 161.242 C 209.576 161.353,209.667 161.274,209.667 161.066 C 209.667 160.858,209.892 160.774,210.167 160.879 C 210.442 160.985,210.667 160.905,210.667 160.702 C 210.667 160.499,210.779 160.359,210.917 160.389 C 211.598 160.542,213.637 159.889,213.446 159.579 C 213.317 159.371,213.392 159.330,213.631 159.478 C 213.852 159.614,214.287 159.620,214.599 159.490 C 214.911 159.361,215.842 159.191,216.667 159.112 C 217.492 159.034,218.204 158.864,218.250 158.735 C 218.361 158.419,227.783 158.433,228.019 158.748 M318.000 194.833 L 318.000 199.333 326.833 199.333 L 335.667 199.333 335.667 194.833 L 335.667 190.333 326.833 190.333 L 318.000 190.333 318.000 194.833 " stroke="none" fill="#0484d4" fill-rule="evenodd"></path><path id="path3" d="M138.083 76.250 C 172.138 76.297,227.863 76.297,261.917 76.250 C 295.971 76.203,268.108 76.165,200.000 76.165 C 131.892 76.165,104.029 76.203,138.083 76.250 " stroke="none" fill="#0484cc" fill-rule="evenodd"></path><path id="path4" d="" stroke="none" fill="#3ca0ac" fill-rule="evenodd"></path></g></svg>